
<svg viewBox="0 0 24 24" xmlns="http://www.w3.org/2000/svg">
  <g class="gear-icon">
    <path
      fill="currentColor"
      d="M19.14,12.94a7.43,7.43,0,0,0,.06-.94,7.43,7.43,0,0,0-.06-.94l2.11-1.65a.5.5,0,0,0,.12-.64l-2-3.46a.5.5,0,0,0-.6-.22l-2.49,1A6.78,6.78,0,0,0,14.31,5.4L13.89,2.9a.5.5,0,0,0-.5-.4H10.6a.5.5,0,0,0-.5.4L9.69,5.4A6.78,6.78,0,0,0,7,5.33l-2.49-1a.5.5,0,0,0-.6.22l-2,3.46a.5.5,0,0,0,.12.64L4.9,11.06a7.43,7.43,0,0,0,0,1.88L2.79,14.59a.5.5,0,0,0-.12.64l2,3.46a.5.5,0,0,0,.6.22l2.49-1a6.78,6.78,0,0,0,2.69.07l.41,2.5a.5.5,0,0,0,.5.4h2.79a.5.5,0,0,0,.5-.4l.41-2.5a6.78,6.78,0,0,0,2.69-.07l2.49,1a.5.5,0,0,0,.6-.22l2-3.46a.5.5,0,0,0-.12-.64ZM12,15.5A3.5,3.5,0,1,1,15.5,12,3.5,3.5,0,0,1,12,15.5Z"
    />
  </g>
</svg>
    